# Blender v3.2.0 OBJ File: 'pin.blend'
# www.blender.org
mtllib pin.mtl
o Cylinder
v -0.000000 -0.072000 -0.012000
v -0.000000 0.022000 -0.011000
v 0.006000 -0.072000 -0.010392
v 0.005500 0.022000 -0.009526
v 0.010392 -0.072000 -0.006000
v 0.009526 0.022000 -0.005500
v 0.012000 -0.072000 0.000000
v 0.011000 0.022000 0.000000
v 0.010392 -0.072000 0.006000
v 0.009526 0.022000 0.005500
v 0.006000 -0.072000 0.010392
v 0.005500 0.022000 0.009526
v -0.000000 -0.072000 0.012000
v -0.000000 0.022000 0.011000
v -0.006000 -0.072000 0.010392
v -0.005500 0.022000 0.009526
v -0.010392 -0.072000 0.006000
v -0.009526 0.022000 0.005500
v -0.012000 -0.072000 0.000000
v -0.011000 0.022000 0.000000
v -0.010392 -0.072000 -0.006000
v -0.009526 0.022000 -0.005500
v -0.006000 -0.072000 -0.010392
v -0.005500 0.022000 -0.009526
v -0.000000 0.000000 -0.020000
v 0.010000 0.000000 -0.017320
v 0.017320 0.000000 -0.010000
v 0.020000 0.000000 0.000000
v 0.017320 0.000000 0.010000
v 0.010000 0.000000 0.017321
v -0.000000 0.000000 0.020000
v -0.010000 0.000000 0.017321
v -0.017321 0.000000 0.010000
v -0.020000 0.000000 0.000000
v -0.017321 0.000000 -0.010000
v -0.010000 0.000000 -0.017320
v -0.000000 0.039000 -0.009041
v 0.004521 0.039000 -0.007830
v 0.007830 0.039000 -0.004521
v 0.009041 0.039000 0.000000
v 0.007830 0.039000 0.004521
v 0.004521 0.039000 0.007830
v -0.000000 0.039000 0.009041
v -0.004521 0.039000 0.007830
v -0.007830 0.039000 0.004521
v -0.009041 0.039000 0.000000
v -0.007830 0.039000 -0.004521
v -0.004521 0.039000 -0.007830
v 0.007794 0.031000 -0.004500
v 0.009000 0.031000 0.000000
v -0.007794 0.031000 -0.004500
v -0.004500 0.031000 -0.007794
v 0.004500 0.031000 -0.007794
v -0.009000 0.031000 0.000000
v -0.007794 0.031000 0.004500
v -0.004500 0.031000 0.007794
v -0.000000 0.031000 0.009000
v 0.004500 0.031000 0.007794
v 0.007794 0.031000 0.004500
v -0.000000 0.031000 -0.009000
v -0.000000 0.049000 -0.011043
v 0.005522 0.049000 -0.009564
v 0.009564 0.049000 -0.005522
v 0.011043 0.049000 0.000000
v 0.009564 0.049000 0.005522
v 0.005522 0.049000 0.009564
v -0.000000 0.049000 0.011044
v -0.005522 0.049000 0.009564
v -0.009564 0.049000 0.005522
v -0.011044 0.049000 0.000000
v -0.009564 0.049000 -0.005522
v -0.005522 0.049000 -0.009564
v -0.000183 0.067000 -0.013698
v 0.006667 0.067000 -0.011863
v 0.012384 0.067000 -0.007150
v 0.014300 0.067000 0.000000
v 0.012384 0.067000 0.007150
v 0.006667 0.067000 0.011863
v -0.000183 0.067000 0.013698
v -0.007032 0.067000 0.011863
v -0.012046 0.067000 0.006849
v -0.013881 0.067000 0.000000
v -0.012046 0.067000 -0.006849
v -0.007032 0.067000 -0.011863
v -0.000000 0.082000 -0.002860
v 0.001430 0.082000 -0.002477
v 0.002477 0.082000 -0.001430
v 0.002860 0.082000 0.000000
v 0.002477 0.082000 0.001430
v 0.001430 0.082000 0.002477
v -0.000000 0.082000 0.002860
v -0.001430 0.082000 0.002477
v -0.002477 0.082000 0.001430
v -0.002860 0.082000 0.000000
v -0.002477 0.082000 -0.001430
v -0.001430 0.082000 -0.002477
v -0.000000 0.074500 -0.012870
v 0.006435 0.074500 -0.011146
v -0.006435 0.074500 0.011146
v -0.011146 0.074500 0.006435
v 0.011146 0.074500 0.006435
v 0.006435 0.074500 0.011146
v -0.006435 0.074500 -0.011146
v 0.011146 0.074500 -0.006435
v -0.012870 0.074500 0.000000
v -0.000000 0.074500 0.012870
v 0.012870 0.074500 0.000000
v -0.011146 0.074500 -0.006435
v -0.000000 0.078250 -0.011011
v -0.005506 0.078250 0.009536
v 0.009536 0.078250 0.005506
v -0.005506 0.078250 -0.009536
v 0.005505 0.078250 -0.009536
v -0.009536 0.078250 0.005506
v 0.005505 0.078250 0.009536
v 0.009536 0.078250 -0.005505
v -0.011011 0.078250 0.000000
v -0.000000 0.078250 0.011011
v 0.011011 0.078250 0.000000
v -0.009536 0.078250 -0.005505
v 0.012000 -0.018000 -0.020785
v 0.012000 -0.036000 -0.020785
v 0.009000 -0.054000 -0.015588
v 0.020785 -0.018000 -0.012000
v 0.020785 -0.036000 -0.012000
v 0.015588 -0.054000 -0.009000
v 0.024000 -0.018000 0.000000
v 0.024000 -0.036000 0.000000
v 0.018000 -0.054000 0.000000
v 0.020785 -0.018000 0.012000
v 0.020785 -0.036000 0.012000
v 0.015588 -0.054000 0.009000
v 0.012000 -0.018000 0.020785
v 0.012000 -0.036000 0.020785
v 0.009000 -0.054000 0.015588
v -0.000000 -0.018000 0.024000
v -0.000000 -0.036000 0.024000
v -0.000000 -0.054000 0.018000
v -0.012000 -0.018000 0.020785
v -0.012000 -0.036000 0.020785
v -0.009000 -0.054000 0.015588
v -0.020785 -0.018000 0.012000
v -0.020785 -0.036000 0.012000
v -0.015588 -0.054000 0.009000
v -0.024000 -0.018000 0.000000
v -0.024000 -0.036000 0.000000
v -0.018000 -0.054000 0.000000
v -0.020785 -0.018000 -0.012000
v -0.020785 -0.036000 -0.012000
v -0.015588 -0.054000 -0.009000
v -0.012000 -0.018000 -0.020785
v -0.012000 -0.036000 -0.020785
v -0.009000 -0.054000 -0.015588
v -0.000000 -0.054000 -0.018000
v -0.000000 -0.036000 -0.024000
v -0.000000 -0.018000 -0.024000
v 0.012408 -0.027000 -0.021491
v 0.021491 -0.027000 -0.012408
v 0.024816 -0.027000 0.000000
v 0.021491 -0.027000 0.012408
v 0.012408 -0.027000 0.021491
v -0.000000 -0.027000 0.024816
v -0.012408 -0.027000 0.021491
v -0.021491 -0.027000 0.012408
v -0.024816 -0.027000 0.000000
v -0.021491 -0.027000 -0.012408
v -0.012408 -0.027000 -0.021491
v -0.000000 -0.027000 -0.024816
v 0.007335 -0.063000 -0.012704
v 0.012704 -0.063000 -0.007335
v 0.014670 -0.063000 0.000000
v 0.012704 -0.063000 0.007335
v 0.007335 -0.063000 0.012704
v -0.000000 -0.063000 0.014670
v -0.007335 -0.063000 0.012704
v -0.012704 -0.063000 0.007335
v -0.014670 -0.063000 0.000000
v -0.012704 -0.063000 -0.007335
v -0.007335 -0.063000 -0.012704
v -0.000000 -0.063000 -0.014670
vt 1.000000 0.750000
vt 1.000000 1.000000
vt 0.916667 1.000000
vt 0.916667 0.750000
vt 0.833333 1.000000
vt 0.833333 0.750000
vt 0.750000 1.000000
vt 0.750000 0.750000
vt 0.666667 1.000000
vt 0.666667 0.750000
vt 0.583333 1.000000
vt 0.583333 0.750000
vt 0.500000 1.000000
vt 0.500000 0.750000
vt 0.416667 1.000000
vt 0.416667 0.750000
vt 0.333333 1.000000
vt 0.333333 0.750000
vt 0.250000 1.000000
vt 0.250000 0.750000
vt 0.166667 1.000000
vt 0.166667 0.750000
vt 0.750000 1.000000
vt 0.833333 1.000000
vt 0.833333 1.000000
vt 0.750000 1.000000
vt 0.083333 1.000000
vt 0.083333 0.750000
vt 0.000000 1.000000
vt 0.000000 0.750000
vt 0.750000 0.490000
vt 0.870000 0.457846
vt 0.957846 0.370000
vt 0.990000 0.250000
vt 0.957846 0.130000
vt 0.870000 0.042154
vt 0.750000 0.010000
vt 0.630000 0.042154
vt 0.542154 0.130000
vt 0.510000 0.250000
vt 0.542154 0.370000
vt 0.630000 0.457846
vt 0.083333 0.687500
vt 0.000000 0.687500
vt 0.166667 0.687500
vt 0.250000 0.687500
vt 0.333333 0.687500
vt 0.416667 0.687500
vt 0.500000 0.687500
vt 0.583333 0.687500
vt 0.666667 0.687500
vt 0.750000 0.687500
vt 0.833333 0.687500
vt 0.916667 0.687500
vt 1.000000 0.687500
vt 0.083333 1.000000
vt 0.166667 1.000000
vt 0.166667 1.000000
vt 0.083333 1.000000
vt 0.916667 1.000000
vt 0.916667 1.000000
vt 0.250000 1.000000
vt 0.250000 1.000000
vt 0.333333 1.000000
vt 0.333333 1.000000
vt 0.416667 1.000000
vt 0.416667 1.000000
vt 0.500000 1.000000
vt 0.500000 1.000000
vt 0.583333 1.000000
vt 0.583333 1.000000
vt 0.666667 1.000000
vt 0.666667 1.000000
vt 0.000000 1.000000
vt 0.000000 1.000000
vt 1.000000 1.000000
vt 1.000000 1.000000
vt 0.333333 1.000000
vt 0.416667 1.000000
vt 0.416667 1.000000
vt 0.333333 1.000000
vt 0.916667 1.000000
vt 1.000000 1.000000
vt 1.000000 1.000000
vt 0.916667 1.000000
vt 0.583333 1.000000
vt 0.666667 1.000000
vt 0.666667 1.000000
vt 0.583333 1.000000
vt 0.000000 1.000000
vt 0.083333 1.000000
vt 0.083333 1.000000
vt 0.000000 1.000000
vt 0.833333 1.000000
vt 0.916667 1.000000
vt 0.916667 1.000000
vt 0.833333 1.000000
vt 0.250000 1.000000
vt 0.250000 1.000000
vt 0.500000 1.000000
vt 0.500000 1.000000
vt 0.750000 1.000000
vt 0.750000 1.000000
vt 0.166667 1.000000
vt 0.166667 1.000000
vt 1.000000 1.000000
vt 1.000000 1.000000
vt 0.370000 0.457846
vt 0.250000 0.490000
vt 0.130000 0.457846
vt 0.042154 0.370000
vt 0.010000 0.250000
vt 0.042154 0.130000
vt 0.130000 0.042154
vt 0.250000 0.010000
vt 0.370000 0.042154
vt 0.457846 0.130000
vt 0.490000 0.250000
vt 0.457846 0.370000
vt 0.333333 1.000000
vt 0.416667 1.000000
vt 0.416667 1.000000
vt 0.333333 1.000000
vt 0.583333 1.000000
vt 0.666667 1.000000
vt 0.666667 1.000000
vt 0.583333 1.000000
vt 0.000000 1.000000
vt 0.083333 1.000000
vt 0.083333 1.000000
vt 0.000000 1.000000
vt 0.833333 1.000000
vt 0.833333 1.000000
vt 0.250000 1.000000
vt 0.250000 1.000000
vt 0.500000 1.000000
vt 0.500000 1.000000
vt 0.750000 1.000000
vt 0.750000 1.000000
vt 0.166667 1.000000
vt 0.166667 1.000000
vt 0.166667 1.000000
vt 0.083333 1.000000
vt 0.750000 1.000000
vt 0.666667 1.000000
vt 0.500000 1.000000
vt 0.416667 1.000000
vt 0.250000 1.000000
vt 0.833333 1.000000
vt 0.583333 1.000000
vt 0.333333 1.000000
vt 0.916667 1.000000
vt 0.000000 1.000000
vt 1.000000 1.000000
vt 1.000000 0.531250
vt 1.000000 0.562500
vt 0.916667 0.562500
vt 0.916667 0.531250
vt 1.000000 0.625000
vt 0.916667 0.625000
vt 1.000000 0.656250
vt 0.916667 0.656250
vt 0.833333 0.562500
vt 0.833333 0.531250
vt 0.833333 0.625000
vt 0.833333 0.656250
vt 0.750000 0.562500
vt 0.750000 0.531250
vt 0.750000 0.625000
vt 0.750000 0.656250
vt 0.666667 0.562500
vt 0.666667 0.531250
vt 0.666667 0.625000
vt 0.666667 0.656250
vt 0.583333 0.562500
vt 0.583333 0.531250
vt 0.583333 0.625000
vt 0.583333 0.656250
vt 0.500000 0.562500
vt 0.500000 0.531250
vt 0.500000 0.625000
vt 0.500000 0.656250
vt 0.416667 0.562500
vt 0.416667 0.531250
vt 0.416667 0.625000
vt 0.416667 0.656250
vt 0.333333 0.562500
vt 0.333333 0.531250
vt 0.333333 0.625000
vt 0.333333 0.656250
vt 0.250000 0.562500
vt 0.250000 0.531250
vt 0.250000 0.625000
vt 0.250000 0.656250
vt 0.166667 0.562500
vt 0.166667 0.531250
vt 0.166667 0.625000
vt 0.166667 0.656250
vt 0.083333 0.562500
vt 0.083333 0.531250
vt 0.083333 0.625000
vt 0.083333 0.656250
vt 0.000000 0.562500
vt 0.000000 0.531250
vt 0.000000 0.625000
vt 0.000000 0.656250
vt 0.083333 0.500000
vt 0.000000 0.500000
vt 0.166667 0.500000
vt 0.250000 0.500000
vt 0.333333 0.500000
vt 0.416667 0.500000
vt 0.500000 0.500000
vt 0.583333 0.500000
vt 0.666667 0.500000
vt 0.750000 0.500000
vt 0.833333 0.500000
vt 0.916667 0.500000
vt 1.000000 0.500000
vn 0.0000 0.2949 -0.9555
vn 0.0000 0.3029 -0.9530
vn 0.4765 0.3029 -0.8253
vn 0.4778 0.2949 -0.8275
vn 0.8253 0.3029 -0.4765
vn 0.8275 0.2949 -0.4778
vn 0.9530 0.3029 -0.0000
vn 0.9555 0.2949 -0.0000
vn 0.8253 0.3029 0.4765
vn 0.8275 0.2949 0.4778
vn 0.4765 0.3029 0.8253
vn 0.4778 0.2949 0.8275
vn -0.0000 0.3029 0.9530
vn -0.0000 0.2949 0.9555
vn -0.4765 0.3029 0.8253
vn -0.4778 0.2949 0.8275
vn -0.8253 0.3029 0.4765
vn -0.8275 0.2949 0.4778
vn -0.9530 0.3029 0.0000
vn -0.9555 0.2949 0.0000
vn -0.8253 0.3029 -0.4765
vn -0.8275 0.2949 -0.4778
vn 0.9941 0.1086 -0.0000
vn 0.8609 0.1086 -0.4970
vn 0.8614 -0.1028 -0.4973
vn 0.9947 -0.1028 -0.0000
vn -0.4765 0.3029 -0.8253
vn -0.4778 0.2949 -0.8275
vn -0.0000 -0.7557 -0.6549
vn 0.3275 -0.7557 -0.5672
vn 0.5672 -0.7557 -0.3275
vn 0.6549 -0.7557 0.0000
vn 0.5672 -0.7557 0.3275
vn 0.3275 -0.7557 0.5672
vn 0.0000 -0.7557 0.6549
vn -0.3275 -0.7557 0.5672
vn -0.5672 -0.7557 0.3275
vn -0.6549 -0.7557 0.0000
vn -0.5672 -0.7557 -0.3275
vn -0.3275 -0.7557 -0.5672
vn -0.4942 0.1523 -0.8559
vn 0.0000 0.1523 -0.9883
vn -0.8559 0.1523 -0.4942
vn -0.9883 0.1523 0.0000
vn -0.8559 0.1523 0.4942
vn -0.4942 0.1523 0.8559
vn -0.0000 0.1523 0.9883
vn 0.4942 0.1523 0.8559
vn 0.8559 0.1523 0.4942
vn 0.9883 0.1523 -0.0000
vn 0.8559 0.1523 -0.4942
vn 0.4942 0.1523 -0.8559
vn -0.4970 0.1086 -0.8609
vn -0.8609 0.1086 -0.4970
vn -0.8614 -0.1028 -0.4973
vn -0.4973 -0.1028 -0.8614
vn 0.4970 0.1086 -0.8609
vn 0.4973 -0.1028 -0.8614
vn -0.9941 0.1086 0.0000
vn -0.9947 -0.1028 0.0000
vn -0.8609 0.1086 0.4970
vn -0.8614 -0.1028 0.4973
vn -0.4970 0.1086 0.8609
vn -0.4973 -0.1028 0.8614
vn -0.0000 0.1086 0.9941
vn -0.0000 -0.1028 0.9947
vn 0.4970 0.1086 0.8609
vn 0.4973 -0.1028 0.8614
vn 0.8609 0.1086 0.4970
vn 0.8614 -0.1028 0.4973
vn 0.0000 0.1086 -0.9941
vn 0.0000 -0.1028 -0.9947
vn -0.8525 -0.1748 0.4927
vn -0.4918 -0.1730 0.8533
vn -0.5020 -0.0143 0.8647
vn -0.8666 -0.0118 0.4988
vn 0.3616 0.6907 -0.6262
vn -0.0000 0.6907 -0.7231
vn 0.0000 0.9689 -0.2474
vn 0.1237 0.9689 -0.2142
vn 0.4809 -0.1724 0.8596
vn 0.8444 -0.1825 0.5036
vn 0.8531 -0.0024 0.5218
vn 0.4756 -0.0143 0.8796
vn 0.0009 -0.1705 -0.9854
vn -0.4918 -0.1730 -0.8533
vn -0.5020 -0.0143 -0.8647
vn -0.0027 -0.0178 -0.9998
vn 0.8444 -0.1825 -0.5036
vn 0.4809 -0.1724 -0.8596
vn 0.4756 -0.0143 -0.8796
vn 0.8531 -0.0024 -0.5218
vn -0.9845 -0.1755 0.0000
vn -0.9999 -0.0109 0.0000
vn 0.0009 -0.1705 0.9854
vn -0.0027 -0.0178 0.9998
vn 0.9824 -0.1869 -0.0000
vn 1.0000 0.0046 -0.0000
vn -0.8525 -0.1748 -0.4927
vn -0.8666 -0.0118 -0.4988
vn -0.1237 0.9689 -0.2142
vn -0.2142 0.9689 -0.1237
vn -0.2474 0.9689 -0.0000
vn -0.2142 0.9689 0.1237
vn -0.1237 0.9689 0.2142
vn -0.0000 0.9689 0.2474
vn 0.1237 0.9689 0.2142
vn 0.2142 0.9689 0.1237
vn 0.2474 0.9689 -0.0000
vn 0.2142 0.9689 -0.1237
vn -0.6262 0.6907 0.3616
vn -0.3616 0.6907 0.6263
vn 0.3616 0.6907 0.6263
vn 0.6263 0.6907 0.3616
vn -0.3616 0.6907 -0.6263
vn 0.6262 0.6907 -0.3616
vn -0.7231 0.6907 -0.0000
vn -0.0000 0.6907 0.7231
vn 0.7231 0.6907 -0.0000
vn -0.6262 0.6907 -0.3616
vn -0.8298 0.2840 -0.4804
vn -0.4784 0.2796 -0.8324
vn 0.9500 0.3121 -0.0000
vn 0.8188 0.3012 0.4886
vn 0.0022 0.2738 0.9618
vn -0.4784 0.2796 0.8324
vn -0.9584 0.2855 -0.0000
vn 0.8188 0.3012 -0.4886
vn 0.4697 0.2792 0.8375
vn -0.8298 0.2840 0.4804
vn 0.4697 0.2792 -0.8375
vn 0.0022 0.2738 -0.9618
vn 0.0000 -0.3175 -0.9482
vn 0.0000 -0.3308 -0.9437
vn 0.4718 -0.3308 -0.8173
vn 0.4741 -0.3175 -0.8212
vn 0.0000 -0.2009 -0.9796
vn 0.4898 -0.2009 -0.8484
vn 0.0000 -0.0000 -1.0000
vn 0.5000 0.0000 -0.8660
vn 0.8173 -0.3308 -0.4718
vn 0.8212 -0.3175 -0.4741
vn 0.8484 -0.2009 -0.4898
vn 0.8660 0.0000 -0.5000
vn 0.9437 -0.3308 0.0000
vn 0.9482 -0.3175 0.0000
vn 0.9796 -0.2009 -0.0000
vn 1.0000 -0.0000 -0.0000
vn 0.8173 -0.3308 0.4718
vn 0.8212 -0.3175 0.4741
vn 0.8484 -0.2009 0.4898
vn 0.8660 -0.0000 0.5000
vn 0.4718 -0.3308 0.8173
vn 0.4741 -0.3175 0.8212
vn 0.4898 -0.2009 0.8484
vn 0.5000 -0.0000 0.8660
vn -0.0000 -0.3308 0.9437
vn 0.0000 -0.3175 0.9482
vn -0.0000 -0.2009 0.9796
vn -0.0000 0.0000 1.0000
vn -0.4718 -0.3308 0.8173
vn -0.4741 -0.3175 0.8212
vn -0.4898 -0.2009 0.8484
vn -0.5000 0.0000 0.8660
vn -0.8173 -0.3308 0.4718
vn -0.8212 -0.3175 0.4741
vn -0.8484 -0.2009 0.4898
vn -0.8660 0.0000 0.5000
vn -0.9437 -0.3308 -0.0000
vn -0.9482 -0.3175 -0.0000
vn -0.9796 -0.2009 0.0000
vn -1.0000 0.0000 0.0000
vn -0.8173 -0.3308 -0.4718
vn -0.8212 -0.3175 -0.4741
vn -0.8484 -0.2009 -0.4898
vn -0.8660 0.0000 -0.5000
vn -0.4718 -0.3308 -0.8173
vn -0.4741 -0.3175 -0.8212
vn -0.4898 -0.2009 -0.8484
vn -0.5000 -0.0000 -0.8660
usemtl Body
s 1
f 25/1/1 2/2/2 4/3/3 26/4/4
f 26/4/4 4/3/3 6/5/5 27/6/6
f 27/6/6 6/5/5 8/7/7 28/8/8
f 28/8/8 8/7/7 10/9/9 29/10/10
f 29/10/10 10/9/9 12/11/11 30/12/12
f 30/12/12 12/11/11 14/13/13 31/14/14
f 31/14/14 14/13/13 16/15/15 32/16/16
f 32/16/16 16/15/15 18/17/17 33/18/18
f 33/18/18 18/17/17 20/19/19 34/20/20
f 34/20/20 20/19/19 22/21/21 35/22/22
f 50/23/23 49/24/24 39/25/25 40/26/26
f 35/22/22 22/21/21 24/27/27 36/28/28
f 36/28/28 24/27/27 2/29/2 25/30/1
f 1/31/29 3/32/30 5/33/31 7/34/32 9/35/33 11/36/34 13/37/35 15/38/36 17/39/37 19/40/38 21/41/39 23/42/40
f 151/43/41 36/28/28 25/30/1 156/44/42
f 148/45/43 35/22/22 36/28/28 151/43/41
f 145/46/44 34/20/20 35/22/22 148/45/43
f 142/47/45 33/18/18 34/20/20 145/46/44
f 139/48/46 32/16/16 33/18/18 142/47/45
f 136/49/47 31/14/14 32/16/16 139/48/46
f 133/50/48 30/12/12 31/14/14 136/49/47
f 130/51/49 29/10/10 30/12/12 133/50/48
f 127/52/50 28/8/8 29/10/10 130/51/49
f 124/53/51 27/6/6 28/8/8 127/52/50
f 121/54/52 26/4/4 27/6/6 124/53/51
f 156/55/42 25/1/1 26/4/4 121/54/52
f 52/56/53 51/57/54 47/58/55 48/59/56
f 49/24/24 53/60/57 38/61/58 39/25/25
f 51/57/54 54/62/59 46/63/60 47/58/55
f 54/62/59 55/64/61 45/65/62 46/63/60
f 55/64/61 56/66/63 44/67/64 45/65/62
f 56/66/63 57/68/65 43/69/66 44/67/64
f 57/68/65 58/70/67 42/71/68 43/69/66
f 58/70/67 59/72/69 41/73/70 42/71/68
f 59/72/69 50/23/23 40/26/26 41/73/70
f 60/74/71 52/56/53 48/59/56 37/75/72
f 53/60/57 60/76/71 37/77/72 38/61/58
f 69/78/73 68/79/74 80/80/75 81/81/76
f 113/82/77 109/83/78 85/84/79 86/85/80
f 66/86/81 65/87/82 77/88/83 78/89/84
f 61/90/85 72/91/86 84/92/87 73/93/88
f 63/94/89 62/95/90 74/96/91 75/97/92
f 70/98/93 69/78/73 81/81/76 82/99/94
f 67/100/95 66/86/81 78/89/84 79/101/96
f 64/102/97 63/94/89 75/97/92 76/103/98
f 71/104/99 70/98/93 82/99/94 83/105/100
f 68/79/74 67/100/95 79/101/96 80/80/75
f 65/87/82 64/102/97 76/103/98 77/88/83
f 72/91/86 71/104/99 83/105/100 84/92/87
f 62/95/90 61/106/85 73/107/88 74/96/91
f 86/108/80 85/109/79 96/110/101 95/111/102 94/112/103 93/113/104 92/114/105 91/115/106 90/116/107 89/117/108 88/118/109 87/119/110
f 114/120/111 110/121/112 92/122/105 93/123/104
f 115/124/113 111/125/114 89/126/108 90/127/107
f 109/128/78 112/129/115 96/130/101 85/131/79
f 116/132/116 113/82/77 86/85/80 87/133/110
f 117/134/117 114/120/111 93/123/104 94/135/103
f 118/136/118 115/124/113 90/127/107 91/137/106
f 119/138/119 116/132/116 87/133/110 88/139/109
f 120/140/120 117/134/117 94/135/103 95/141/102
f 110/121/112 118/136/118 91/137/106 92/122/105
f 111/125/114 119/138/119 88/139/109 89/126/108
f 112/129/115 120/140/120 95/141/102 96/130/101
f 84/92/87 83/105/100 108/142/121 103/143/122
f 77/88/83 76/103/98 107/144/123 101/145/124
f 80/80/75 79/101/96 106/146/125 99/147/126
f 83/105/100 82/99/94 105/148/127 108/142/121
f 76/103/98 75/97/92 104/149/128 107/144/123
f 79/101/96 78/89/84 102/150/129 106/146/125
f 82/99/94 81/81/76 100/151/130 105/148/127
f 75/97/92 74/96/91 98/152/131 104/149/128
f 73/93/88 84/92/87 103/143/122 97/153/132
f 78/89/84 77/88/83 101/145/124 102/150/129
f 81/81/76 80/80/75 99/147/126 100/151/130
f 74/96/91 73/107/88 97/154/132 98/152/131
f 103/143/122 108/142/121 120/140/120 112/129/115
f 101/145/124 107/144/123 119/138/119 111/125/114
f 99/147/126 106/146/125 118/136/118 110/121/112
f 108/142/121 105/148/127 117/134/117 120/140/120
f 107/144/123 104/149/128 116/132/116 119/138/119
f 106/146/125 102/150/129 115/124/113 118/136/118
f 105/148/127 100/151/130 114/120/111 117/134/117
f 104/149/128 98/152/131 113/82/77 116/132/116
f 97/153/132 103/143/122 112/129/115 109/128/78
f 102/150/129 101/145/124 111/125/114 115/124/113
f 100/151/130 99/147/126 110/121/112 114/120/111
f 98/152/131 97/154/132 109/83/78 113/82/77
f 180/155/133 154/156/134 123/157/135 169/158/136
f 154/156/134 155/159/137 122/160/138 123/157/135
f 168/161/139 156/55/42 121/54/52 157/162/140
f 169/158/136 123/157/135 126/163/141 170/164/142
f 123/157/135 122/160/138 125/165/143 126/163/141
f 157/162/140 121/54/52 124/53/51 158/166/144
f 170/164/142 126/163/141 129/167/145 171/168/146
f 126/163/141 125/165/143 128/169/147 129/167/145
f 158/166/144 124/53/51 127/52/50 159/170/148
f 171/168/146 129/167/145 132/171/149 172/172/150
f 129/167/145 128/169/147 131/173/151 132/171/149
f 159/170/148 127/52/50 130/51/49 160/174/152
f 172/172/150 132/171/149 135/175/153 173/176/154
f 132/171/149 131/173/151 134/177/155 135/175/153
f 160/174/152 130/51/49 133/50/48 161/178/156
f 173/176/154 135/175/153 138/179/157 174/180/158
f 135/175/153 134/177/155 137/181/159 138/179/157
f 161/178/156 133/50/48 136/49/47 162/182/160
f 174/180/158 138/179/157 141/183/161 175/184/162
f 138/179/157 137/181/159 140/185/163 141/183/161
f 162/182/160 136/49/47 139/48/46 163/186/164
f 175/184/162 141/183/161 144/187/165 176/188/166
f 141/183/161 140/185/163 143/189/167 144/187/165
f 163/186/164 139/48/46 142/47/45 164/190/168
f 176/188/166 144/187/165 147/191/169 177/192/170
f 144/187/165 143/189/167 146/193/171 147/191/169
f 164/190/168 142/47/45 145/46/44 165/194/172
f 177/192/170 147/191/169 150/195/173 178/196/174
f 147/191/169 146/193/171 149/197/175 150/195/173
f 165/194/172 145/46/44 148/45/43 166/198/176
f 178/196/174 150/195/173 153/199/177 179/200/178
f 150/195/173 149/197/175 152/201/179 153/199/177
f 166/198/176 148/45/43 151/43/41 167/202/180
f 179/200/178 153/199/177 154/203/134 180/204/133
f 153/199/177 152/201/179 155/205/137 154/203/134
f 167/202/180 151/43/41 156/44/42 168/206/139
f 152/201/179 167/202/180 168/206/139 155/205/137
f 149/197/175 166/198/176 167/202/180 152/201/179
f 146/193/171 165/194/172 166/198/176 149/197/175
f 143/189/167 164/190/168 165/194/172 146/193/171
f 140/185/163 163/186/164 164/190/168 143/189/167
f 137/181/159 162/182/160 163/186/164 140/185/163
f 134/177/155 161/178/156 162/182/160 137/181/159
f 131/173/151 160/174/152 161/178/156 134/177/155
f 128/169/147 159/170/148 160/174/152 131/173/151
f 125/165/143 158/166/144 159/170/148 128/169/147
f 122/160/138 157/162/140 158/166/144 125/165/143
f 155/159/137 168/161/139 157/162/140 122/160/138
f 23/207/40 179/200/178 180/204/133 1/208/29
f 21/209/39 178/196/174 179/200/178 23/207/40
f 19/210/38 177/192/170 178/196/174 21/209/39
f 17/211/37 176/188/166 177/192/170 19/210/38
f 15/212/36 175/184/162 176/188/166 17/211/37
f 13/213/35 174/180/158 175/184/162 15/212/36
f 11/214/34 173/176/154 174/180/158 13/213/35
f 9/215/33 172/172/150 173/176/154 11/214/34
f 7/216/32 171/168/146 172/172/150 9/215/33
f 5/217/31 170/164/142 171/168/146 7/216/32
f 3/218/30 169/158/136 170/164/142 5/217/31
f 1/219/29 180/155/133 169/158/136 3/218/30
usemtl Strips
f 42/71/68 41/73/70 65/87/82 66/86/81
f 4/3/3 2/2/2 60/76/71 53/60/57
f 2/29/2 24/27/27 52/56/53 60/74/71
f 10/9/9 8/7/7 50/23/23 59/72/69
f 12/11/11 10/9/9 59/72/69 58/70/67
f 14/13/13 12/11/11 58/70/67 57/68/65
f 16/15/15 14/13/13 57/68/65 56/66/63
f 18/17/17 16/15/15 56/66/63 55/64/61
f 20/19/19 18/17/17 55/64/61 54/62/59
f 22/21/21 20/19/19 54/62/59 51/57/54
f 6/5/5 4/3/3 53/60/57 49/24/24
f 24/27/27 22/21/21 51/57/54 52/56/53
f 8/7/7 6/5/5 49/24/24 50/23/23
f 37/75/72 48/59/56 72/91/86 61/90/85
f 39/25/25 38/61/58 62/95/90 63/94/89
f 46/63/60 45/65/62 69/78/73 70/98/93
f 43/69/66 42/71/68 66/86/81 67/100/95
f 40/26/26 39/25/25 63/94/89 64/102/97
f 47/58/55 46/63/60 70/98/93 71/104/99
f 44/67/64 43/69/66 67/100/95 68/79/74
f 41/73/70 40/26/26 64/102/97 65/87/82
f 48/59/56 47/58/55 71/104/99 72/91/86
f 38/61/58 37/77/72 61/106/85 62/95/90
f 45/65/62 44/67/64 68/79/74 69/78/73
